<svg width="28" height="32" viewBox="0 0 28 32" fill="none" xmlns="http://www.w3.org/2000/svg">
<g id="Group">
<g id="Group 66">
<path id="Vector" d="M19.0401 31.36C17.268 31.36 15.5356 30.8345 14.0622 29.85C12.5887 28.8654 11.4403 27.4661 10.7621 25.8288C10.084 24.1916 9.90652 22.3901 10.2522 20.652C10.598 18.9139 11.4513 17.3174 12.7044 16.0643C13.9575 14.8112 15.554 13.9579 17.2921 13.6122C19.0301 13.2664 20.8317 13.4439 22.4689 14.122C24.1062 14.8002 25.5055 15.9486 26.49 17.4221C27.4746 18.8956 28.0001 20.6279 28.0001 22.4C28.0001 24.7763 27.0561 27.0553 25.3758 28.7357C23.6954 30.416 21.4164 31.36 19.0401 31.36ZM19.0401 15.68C17.711 15.68 16.4117 16.0741 15.3066 16.8125C14.2016 17.5509 13.3402 18.6004 12.8316 19.8284C12.323 21.0563 12.1899 22.4075 12.4492 23.711C12.7085 25.0146 13.3485 26.2119 14.2883 27.1518C15.2281 28.0916 16.4255 28.7316 17.7291 28.9909C19.0326 29.2502 20.3838 29.1171 21.6117 28.6085C22.8396 28.0998 23.8892 27.2385 24.6276 26.1334C25.366 25.0283 25.7601 23.7291 25.7601 22.4C25.7601 20.6177 25.0521 18.9085 23.7918 17.6482C22.5316 16.388 20.8223 15.68 19.0401 15.68Z" fill="black"/>
<path id="Vector_2" d="M20.8207 25.76L17.9199 22.8592V17.92H20.1599V21.9408L22.3999 24.1808L20.8207 25.76Z" fill="black"/>
<path id="Vector_3" d="M26.88 4.48C26.88 3.88591 26.644 3.31616 26.2239 2.89608C25.8038 2.476 25.2341 2.24 24.64 2.24H20.16V0H17.92V2.24H8.96V0H6.72V2.24H2.24C1.64591 2.24 1.07616 2.476 0.656081 2.89608C0.235999 3.31616 0 3.88591 0 4.48V26.88C0 27.4741 0.235999 28.0438 0.656081 28.4639C1.07616 28.884 1.64591 29.12 2.24 29.12H6.72V26.88H2.24V4.48H6.72V6.72H8.96V4.48H17.92V6.72H20.16V4.48H24.64V11.2H26.88V4.48Z" fill="black"/>
</g>
</g>
</svg>
