<svg width="27" height="30" viewBox="0 0 27 30" fill="none" xmlns="http://www.w3.org/2000/svg">
<g id="Group 66">
<path id="Vector" d="M26.88 4.48C26.88 3.88591 26.644 3.31616 26.2239 2.89608C25.8038 2.476 25.2341 2.24 24.64 2.24H20.16V0H17.92V2.24H8.96V0H6.72V2.24H2.24C1.64591 2.24 1.07616 2.476 0.656081 2.89608C0.235999 3.31616 0 3.88591 0 4.48V26.88C0 27.4741 0.235999 28.0438 0.656081 28.4639C1.07616 28.884 1.64591 29.12 2.24 29.12H6.72V26.88H2.24V4.48H6.72V6.72H8.96V4.48H17.92V6.72H20.16V4.48H24.64V11.2H26.88V4.48Z" fill="#1E1E1E"/>
<path id="Vector_2" d="M20.75 21.25V15H18.25V21.25H12V23.75H18.25V30H20.75V23.75H27V21.25H20.75Z" fill="#1E1E1E"/>
</g>
</svg>
