<svg width="29" height="30" viewBox="0 0 29 30" fill="none" xmlns="http://www.w3.org/2000/svg">
<g id="Group 61">
<path id="Vector" d="M15.1325 4.70315C15.3222 4.51372 15.5792 4.40732 15.8473 4.40732C16.1154 4.40732 16.3725 4.51372 16.5621 4.70315L18.5852 6.7262C18.7638 6.91795 18.8611 7.17157 18.8565 7.43362C18.8519 7.69567 18.7457 7.9457 18.5604 8.13103C18.375 8.31636 18.125 8.42252 17.863 8.42714C17.6009 8.43176 17.3473 8.33449 17.1555 8.15582L15.1325 6.13277C14.9431 5.94311 14.8367 5.68601 14.8367 5.41796C14.8367 5.1499 14.9431 4.89281 15.1325 4.70315Z" fill="black"/>
<path id="Vector_2" fill-rule="evenodd" clip-rule="evenodd" d="M7.83864 2.80418C8.61349 2.02928 9.53339 1.41459 10.5458 0.995212C11.5582 0.575836 12.6434 0.359985 13.7392 0.359985C14.835 0.359985 15.9202 0.575836 16.9326 0.995212C17.945 1.41459 18.8649 2.02928 19.6398 2.80418L26.5532 9.71761C27.907 11.0702 28.7548 12.847 28.9545 14.7503C29.1541 16.6535 28.6935 18.5676 27.6498 20.1717C26.606 21.7757 25.0427 22.9723 23.2217 23.5608C21.4007 24.1493 19.4328 24.094 17.6477 23.4042C16.9069 25.408 15.4851 27.0875 13.6312 28.149C11.7772 29.2105 9.60907 29.5864 7.50599 29.2109C5.40291 28.8355 3.49877 27.7326 2.12664 26.0951C0.754508 24.4577 0.00173785 22.39 5.00335e-08 20.2536C-0.00019508 18.3917 0.57037 16.5744 1.63481 15.0467C2.69925 13.5191 4.2064 12.3544 5.95316 11.7096C5.37158 10.202 5.24016 8.55805 5.57486 6.97722C5.90955 5.39638 6.69597 3.94671 7.83864 2.80418ZM18.2101 4.2338C17.0244 3.04803 15.4161 2.38188 13.7392 2.38188C12.0623 2.38188 10.454 3.04803 9.26826 4.2338C8.08249 5.41957 7.41634 7.02781 7.41634 8.70474C7.41634 10.3817 8.08249 11.9899 9.26826 13.1757L12.3082 16.2129C12.5995 16.1158 13.0095 15.9607 13.5086 15.722C14.5943 15.1974 16.0994 14.2708 17.703 12.6686C19.3053 11.0663 20.2318 9.55981 20.7551 8.47411C20.9447 8.08491 21.1091 7.68398 21.2474 7.27377L18.2088 4.23515L18.2101 4.2338ZM22.8119 8.83826C22.7431 9.0001 22.6635 9.17139 22.5786 9.35076C21.9649 10.6239 20.9102 12.3206 19.1326 14.0982C17.3551 15.8771 15.657 16.9305 14.3852 17.5441C14.2058 17.6304 14.0346 17.7087 13.8727 17.7788L16.183 20.0878C16.7676 20.6856 17.4649 21.1615 18.2346 21.488C19.0044 21.8145 19.8312 21.985 20.6673 21.9897C21.5034 21.9944 22.3322 21.8332 23.1055 21.5154C23.8789 21.1976 24.5815 20.7295 25.1728 20.1383C25.764 19.5471 26.232 18.8444 26.5498 18.0711C26.8676 17.2977 27.0288 16.469 27.0241 15.6329C27.0194 14.7968 26.8489 13.9699 26.5224 13.2002C26.196 12.4304 25.72 11.7331 25.1222 11.1486L22.8119 8.83826ZM6.92017 13.5155C5.76786 13.8898 4.73086 14.5535 3.90837 15.4431C3.08588 16.3327 2.50542 17.4185 2.22251 18.5966C1.93961 19.7746 1.96373 21.0056 2.29257 22.1717C2.6214 23.3378 3.24395 24.4 4.10066 25.2567C4.95737 26.1134 6.01957 26.736 7.18566 27.0648C8.35175 27.3936 9.58272 27.4178 10.7608 27.1348C11.9389 26.8519 13.0246 26.2715 13.9143 25.449C14.8039 24.6265 15.4676 23.5895 15.8418 22.4372C15.4532 22.1625 15.0886 21.8552 14.7521 21.5187L7.83864 14.6053C7.50217 14.2687 7.19491 13.9042 6.92017 13.5155Z" fill="black"/>
</g>
</svg>
